<svg xmlns="http://www.w3.org/2000/svg" width="12.9" height="12.9" viewBox="0 0 12.9 12.9"><defs><style>.a{fill:#14a5da;}</style></defs><path class="a" d="M2.924,9.971a1.7,1.7,0,0,1,0,2.412h0a1.714,1.714,0,0,1-2.421,0,1.7,1.7,0,0,1,0-2.412h0a1.711,1.711,0,0,1,2.421,0Zm0,0h0ZM.5,12.384h0Zm-.5-8V6.85A6.007,6.007,0,0,1,4.268,8.622,6.02,6.02,0,0,1,6.038,12.9h0v0H8.512a8.493,8.493,0,0,0-2.5-6.015A8.483,8.483,0,0,0,0,4.386ZM.006,0V2.462A10.449,10.449,0,0,1,10.431,12.9H12.9A12.866,12.866,0,0,0,9.117,3.784,12.854,12.854,0,0,0,.006,0Z"/></svg>